<?xml version="1.0" standalone="no"?><!DOCTYPE svg PUBLIC "-//W3C//DTD SVG 1.1//EN"
        "http://www.w3.org/Graphics/SVG/1.1/DTD/svg11.dtd">
<svg t="1633116014722" class="icon" viewBox="0 0 1024 1024" version="1.1" xmlns="http://www.w3.org/2000/svg"
     p-id="13110" xmlns:xlink="http://www.w3.org/1999/xlink" width="15" height="15">
    <defs>
        <style type="text/css"></style>
    </defs>
    <path d="M85.333333 554.666667c-12.8 0-21.333333-8.533333-21.333333-21.333334 0-153.6 123.733333-277.333333 277.333333-277.333333h597.333334c12.8 0 21.333333 8.533333 21.333333 21.333333s-8.533333 21.333333-21.333333 21.333334H341.333333C211.2 298.666667 106.666667 403.2 106.666667 533.333333c0 12.8-8.533333 21.333333-21.333334 21.333334z"
          p-id="13111" fill="#D3D3D3"></path>
    <path d="M810.666667 426.666667c-6.4 0-10.666667-2.133333-14.933334-6.4-8.533333-8.533333-8.533333-21.333333 0-29.866667l113.066667-113.066667-113.066667-113.066666c-8.533333-8.533333-8.533333-21.333333 0-29.866667s21.333333-8.533333 29.866667 0l128 128c8.533333 8.533333 8.533333 21.333333 0 29.866667l-128 128c-4.266667 4.266667-8.533333 6.4-14.933333 6.4zM682.666667 768H85.333333c-12.8 0-21.333333-8.533333-21.333333-21.333333s8.533333-21.333333 21.333333-21.333334h597.333334c130.133333 0 234.666667-104.533333 234.666666-234.666666 0-12.8 8.533333-21.333333 21.333334-21.333334s21.333333 8.533333 21.333333 21.333334c0 153.6-123.733333 277.333333-277.333333 277.333333z"
          p-id="13112" fill="#D3D3D3"></path>
    <path d="M213.333333 896c-6.4 0-10.666667-2.133333-14.933333-6.4l-128-128c-8.533333-8.533333-8.533333-21.333333 0-29.866667l128-128c8.533333-8.533333 21.333333-8.533333 29.866667 0s8.533333 21.333333 0 29.866667L115.2 746.666667l113.066667 113.066666c8.533333 8.533333 8.533333 21.333333 0 29.866667-4.266667 4.266667-8.533333 6.4-14.933334 6.4z"
          p-id="13113" fill="#D3D3D3"></path>
</svg>